<?xml version="1.0" encoding="UTF-8" standalone="no"?>
<!-- Created with Inkscape (http://www.inkscape.org/) -->

<svg
   width="36.803341mm"
   height="36.803341mm"
   viewBox="0 0 36.803341 36.803341"
   version="1.1"
   id="svg1"
   xml:space="preserve"
   xmlns:inkscape="http://www.inkscape.org/namespaces/inkscape"
   xmlns:sodipodi="http://sodipodi.sourceforge.net/DTD/sodipodi-0.dtd"
   xmlns="http://www.w3.org/2000/svg"
   xmlns:svg="http://www.w3.org/2000/svg"><sodipodi:namedview
     id="namedview1"
     pagecolor="#ffffff"
     bordercolor="#000000"
     borderopacity="0.25"
     inkscape:showpageshadow="2"
     inkscape:pageopacity="0.0"
     inkscape:pagecheckerboard="0"
     inkscape:deskcolor="#d1d1d1"
     inkscape:document-units="mm"
     inkscape:export-bgcolor="#ffffffff" /><defs
     id="defs1" /><g
     inkscape:label="Camada 1"
     inkscape:groupmode="layer"
     id="layer1"
     transform="translate(-9.5306971,-114.13958)"><g
       id="g2"
       transform="matrix(0.5822265,0,0,0.5822265,2.8680835,109.5146)"
       inkscape:export-filename="icon.svg"
       inkscape:export-xdpi="96"
       inkscape:export-ydpi="96"><g
         id="SvgjsG1009-0"
         class="NMBZWNzkR"
         transform="matrix(0.23621591,0,0,0.23621591,11.443337,7.9436015)"
         light-content="false"
         non-strokable="false"
         fill="#fd3f5c"><circle
           cx="133.8"
           cy="133.8"
           r="133.8"
           id="circle1-7" /></g><g
         id="SvgjsG1010-3"
         class="vRyh6RO5Q3"
         transform="matrix(0.35307453,0,0,0.35307453,25.395122,21.895563)"
         light-content="true"
         non-strokable="false"
         fill="#ffffff"><path
           d="M 34.723,65.277 H 11.11 A 4.171,4.171 0 0 1 6.946,61.109 v -50 A 4.168,4.168 0 0 1 11.11,6.945 h 44.445 c 2.3,0 4.164,1.867 4.168,4.164 v 18.059 a 1.3885,1.3885 0 1 0 2.777,0 V 11.109 A 6.95,6.95 0 0 0 55.555,4.168 H 11.11 a 6.948,6.948 0 0 0 -6.941,6.941 v 50 a 6.95,6.95 0 0 0 6.941,6.945 h 23.613 a 1.3885,1.3885 0 1 0 0,-2.777 z"
           id="path1-4" /><path
           d="M 51.391,15.973 A 4.871,4.871 0 0 0 46.528,11.11 h -26.391 0.004 a 4.8615,4.8615 0 1 0 0,9.723 h 26.39 -0.003 a 4.865,4.865 0 0 0 4.863,-4.86 z m -33.332,0 h -0.004 a 2.085,2.085 0 0 1 2.086,-2.082 h 26.391 -0.004 a 2.082,2.082 0 1 1 0,4.164 h -26.39 0.003 a 2.087,2.087 0 0 1 -2.086,-2.082 z m 5.55,11.804 h 29.168 a 1.39,1.39 0 0 0 1.39,-1.387 C 54.167,25.62 53.543,25 52.777,25 H 23.609 a 1.3885,1.3885 0 0 0 0,2.777 z m 11.114,2.778 H 13.891 a 1.389,1.389 0 1 0 0,2.777 h 20.832 a 1.3885,1.3885 0 1 0 0,-2.777 z m -1.391,5.554 H 13.891 a 1.391,1.391 0 0 0 0,2.781 h 19.441 a 1.391,1.391 0 0 0 0,-2.781 z m 0,5.559 H 13.891 a 1.3885,1.3885 0 1 0 0,2.777 h 19.441 a 1.389,1.389 0 1 0 0,-2.777 z M 88.891,31.945 H 44.446 a 6.95,6.95 0 0 0 -6.945,6.945 v 50 a 6.95,6.95 0 0 0 6.945,6.942 h 44.445 a 6.948,6.948 0 0 0 6.941,-6.942 v -50 a 6.95,6.95 0 0 0 -6.941,-6.945 z m 4.168,56.945 h -0.004 a 4.168,4.168 0 0 1 -4.164,4.164 H 44.446 A 4.171,4.171 0 0 1 40.278,88.89 v -50 a 4.174,4.174 0 0 1 4.168,-4.168 h 44.445 a 4.171,4.171 0 0 1 4.164,4.168 z"
           id="path2-6" /><path
           d="M 53.473,48.609 H 79.864 79.86 a 4.86,4.86 0 1 0 0,-9.719 h -26.39 0.003 c -2.684,0 -4.863,2.176 -4.863,4.86 0,2.684 2.18,4.859 4.863,4.859 z m 0,-6.945 h 26.391 l -0.004,0.004 a 2.082,2.082 0 1 1 0,4.164 h -26.39 0.003 c -1.152,0 -2.082,-0.93 -2.082,-2.082 0,-1.152 0.93,-2.082 2.082,-2.082 z M 86.109,52.777 H 56.945 a 1.389,1.389 0 1 0 0,2.777 h 29.164 a 1.3885,1.3885 0 1 0 0,-2.777 z m 0,5.555 H 47.222 c -0.766,0 -1.39,0.625 -1.39,1.39 0,0.765 0.624,1.387 1.39,1.387 h 38.887 a 1.3885,1.3885 0 1 0 0,-2.777 z m 0,5.559 H 47.222 c -0.766,0 -1.39,0.621 -1.39,1.387 0,0.766 0.624,1.39 1.39,1.39 h 38.887 a 1.3885,1.3885 0 1 0 0,-2.777 z m -6.941,6.941 a 1.4,1.4 0 0 0 -0.406,-0.98 1.393,1.393 0 0 0 -0.985,-0.407 H 47.222 a 1.39,1.39 0 0 0 -1.39,1.387 c 0,0.77 0.625,1.39 1.39,1.39 h 30.555 c 0.368,0 0.723,-0.148 0.985,-0.406 a 1.4,1.4 0 0 0 0.406,-0.984 z m -8.336,9.723 c 0,0.371 0.148,0.723 0.406,0.984 0.262,0.258 0.617,0.407 0.985,0.407 h 9.722 a 1.389,1.389 0 0 0 0,-2.778 h -9.722 c -0.368,0 -0.723,0.145 -0.985,0.407 a 1.393,1.393 0 0 0 -0.406,0.98 z m 15.277,5.554 H 68.054 a 1.3905,1.3905 0 0 0 0,2.781 h 18.055 a 1.391,1.391 0 0 0 0,-2.781 z"
           id="path3-3" /></g></g></g></svg>
